<?xml version="1.0" encoding="UTF-8" standalone="no"?>
<svg
   xmlns:dc="http://purl.org/dc/elements/1.1/"
   xmlns:cc="http://creativecommons.org/ns#"
   xmlns:rdf="http://www.w3.org/1999/02/22-rdf-syntax-ns#"
   xmlns:svg="http://www.w3.org/2000/svg"
   xmlns="http://www.w3.org/2000/svg"
   version="1.1"
   id="svg4204"
   viewBox="0 0 1024 1024"
   height="1024"
   width="1024">
  <defs
     id="defs4206" />
  <metadata
     id="metadata4209">
    <rdf:RDF>
      <cc:Work
         rdf:about="">
        <dc:format>image/svg+xml</dc:format>
        <dc:type
           rdf:resource="http://purl.org/dc/dcmitype/StillImage" />
        <dc:title></dc:title>
      </cc:Work>
    </rdf:RDF>
  </metadata>
  <g
     transform="translate(0,-28.362161)"
     id="layer1">
    <g
       transform="translate(1743.4286,750.8571)"
       id="g4764">
      <path
         style="opacity:1;fill:#666666;fill-opacity:1;stroke:none;stroke-width:1.79999995;stroke-linecap:round;stroke-linejoin:round;stroke-miterlimit:4;stroke-dasharray:none;stroke-dashoffset:69.34999847;stroke-opacity:1"
         d="M -1609.5372,-671.46074 -853.31992,-671.46074 C -807.41706,-671.46074 -770.46278,-634.50646 -770.46278,-588.60361 L -770.46278,167.6137 C -770.46278,213.51656 -807.41706,250.47087 -853.31992,250.47087 L -1609.5372,250.47087 C -1655.4401,250.47087 -1692.3944,213.51656 -1692.3944,167.6137 L -1692.3944,-588.60361 C -1692.3944,-634.50646 -1655.4401,-671.46074 -1609.5372,-671.46074 Z"
         id="rect4171" />
      <path
         style="opacity:1;fill:#4f4f4f;fill-opacity:1;stroke:none;stroke-width:1.79999995;stroke-linecap:round;stroke-linejoin:round;stroke-miterlimit:4;stroke-dasharray:none;stroke-dashoffset:69.34999847;stroke-opacity:1"
         d="M -1192.8114,-576.52622 -1540.7118,-522.50277 -1564.4403,-432.12973 -1384.1141,-251.80355 C -1431.8829,-248.34676 -1470.0136,-255.73863 -1500.6337,-214.97152 L -1433.9735,-148.23129 -1474.8915,-101.91488 -1353.5848,19.389807 -1514.0673,174.56559 -1438.1649,250.46988 -853.3192,250.46988 C -807.41635,250.46988 -770.46374,213.51727 -770.46374,167.61442 L -770.46374,-331.03793 -1006.9969,-567.57113 -1060.3231,-573.40903 -1143.0712,-526.78402 -1192.8114,-576.52622 Z"
         id="rect4164" />
      <g
         style="font-style:normal;font-weight:normal;font-size:1243.28747559px;line-height:125%;font-family:sans-serif;letter-spacing:0px;word-spacing:0px;fill:#ffffff;fill-opacity:1;stroke:none;stroke-width:1px;stroke-linecap:butt;stroke-linejoin:miter;stroke-opacity:1"
         id="text4136"
         transform="matrix(0.90032407,0,0,0.90032407,-1692.3945,-696.99603)">
        <path
           d="M 891.82431,838.75116 870.68842,816.37198 814.74049,868.59006 Q 722.73721,790.26295 608.35477,790.26295 594.6786,790.26295 579.75915,791.50623 566.08299,791.50623 552.40683,792.74952 490.24246,800.20925 440.51096,817.61527 492.72903,777.83007 527.54108,741.77474 563.59642,705.7194 584.7323,674.63721 645.65339,590.09366 645.65339,483.17094 645.65339,465.76492 643.16681,438.41259 641.92353,411.06027 636.95038,375.00493 629.49065,302.89426 629.49065,265.59563 629.49065,159.9162 761.27912,143.75346 L 747.60296,116.40113 Q 641.92353,116.40113 581.00244,166.13263 516.35149,219.594 516.35149,324.03014 516.35149,358.84219 523.81122,427.223 528.78437,462.03505 530.02765,488.14409 532.51423,513.00984 532.51423,530.41586 532.51423,721.88214 362.18385,837.50787 466.61999,703.23282 466.61999,554.03833 466.61999,532.90244 464.13342,503.06354 462.89013,473.22464 457.91698,433.43944 452.94383,393.65424 450.45726,363.81534 449.21397,332.73316 449.21397,312.84056 449.21397,258.13591 472.83643,219.594 491.48574,187.26852 537.48738,148.72661 543.70382,143.75346 547.43368,140.0236 552.40683,136.29373 554.8934,133.80716 L 543.70382,116.40113 Q 476.56629,149.9699 431.80794,149.9699 401.96904,149.9699 346.02111,131.32058 291.31646,112.67127 261.47756,112.67127 209.25949,115.15785 170.71757,153.69976 132.17566,192.24167 132.17566,244.45974 132.17566,261.86577 142.12196,294.19124 L 164.50114,286.73152 Q 164.50114,284.24494 163.25785,283.00166 L 163.25785,279.27179 Q 160.77127,269.32549 160.77127,264.35234 160.77127,239.48659 175.69072,222.08057 191.85346,203.43126 215.47592,203.43126 239.09839,203.43126 267.694,214.62085 270.18057,214.62085 271.42386,215.86413 L 275.15372,215.86413 Q 313.69563,229.5403 334.83152,229.5403 364.67042,229.5403 440.51096,212.13427 L 429.32137,223.32386 Q 342.29125,310.35398 342.29125,428.46629 342.29125,435.92602 343.53453,450.84547 344.77782,465.76492 344.77782,473.22464 333.58823,469.49478 328.61508,469.49478 314.93892,465.76492 296.28961,465.76492 244.07154,467.0082 198.0699,522.95614 L 212.98935,535.38901 Q 237.8551,517.98299 266.45071,517.98299 354.72412,517.98299 358.45398,629.87886 329.85837,608.74298 297.5329,608.74298 262.72085,608.74298 229.15209,646.0416 L 241.58496,660.96105 Q 257.7477,653.50132 275.15372,653.50132 307.4792,653.50132 327.3718,678.36707 348.50768,703.23282 350.99426,736.80159 L 350.99426,743.01802 Q 347.2644,828.80486 231.63866,912.10512 216.71921,923.29471 204.28634,931.99772 193.09675,939.45744 183.15045,944.43059 L 198.0699,968.05306 Q 359.69727,879.77964 515.1082,879.77964 635.70709,879.77964 752.57611,968.05306 L 891.82431,838.75116 Z"
           style="font-style:normal;font-variant:normal;font-weight:normal;font-stretch:normal;font-family:Canterbury;-inkscape-font-specification:Canterbury;fill:#ffffff"
           id="path4151" />
      </g>
    </g>
  </g>
</svg>
